<svg width="33" height="33" viewBox="0 0 33 33" fill="none" xmlns="http://www.w3.org/2000/svg">
<path d="M16.5006 28.0818C15.9084 28.0818 15.4079 27.8774 14.9991 27.4686C14.5902 27.0597 14.3858 26.5592 14.3858 25.9671C14.3858 25.3749 14.5902 24.8739 14.9991 24.4642C15.4079 24.0544 15.9084 23.85 16.5006 23.8509C17.0927 23.8519 17.5932 24.0563 18.0021 24.4642C18.4109 24.8721 18.6153 25.3726 18.6153 25.9657C18.6153 26.5588 18.4109 27.0597 18.0021 27.4686C17.5932 27.8774 17.0927 28.0818 16.5006 28.0818ZM8.73182 21.1064L7.3252 19.6847C8.51869 18.4912 9.89553 17.5562 11.4557 16.8797C13.0159 16.2032 14.6989 15.8654 16.5047 15.8663C18.3105 15.8672 19.9922 16.2064 21.5496 16.8838C23.107 17.5612 24.4824 18.4999 25.6759 19.6998L24.2693 21.1064C23.261 20.0981 22.0922 19.3075 20.7631 18.7346C19.4339 18.1616 18.0131 17.8752 16.5006 17.8752C14.9881 17.8752 13.5672 18.1616 12.2381 18.7346C10.9089 19.3075 9.74015 20.0981 8.73182 21.1064ZM2.88807 15.2627L1.48145 13.8561C3.39636 11.9311 5.63074 10.4094 8.18457 9.29106C10.7384 8.17273 13.5104 7.61494 16.5006 7.61769C19.4907 7.62044 22.2627 8.17914 24.8166 9.29381C27.3704 10.4085 29.6048 11.9297 31.5197 13.8574L30.1131 15.2627C28.3485 13.4981 26.3034 12.1176 23.9778 11.1212C21.6522 10.1248 19.1598 9.6261 16.5006 9.62519C13.8413 9.62427 11.3494 10.1229 9.0247 11.1212C6.70003 12.1194 4.65449 13.4999 2.88807 15.2627Z" fill="white"/>
</svg>
