<svg width="29" height="29" viewBox="0 0 29 29" fill="none" xmlns="http://www.w3.org/2000/svg">
<path fill-rule="evenodd" clip-rule="evenodd" d="M12.7234 1.77627C12.8931 1.94619 12.9884 2.17653 12.9884 2.41668C12.9884 2.65684 12.8931 2.88718 12.7234 3.0571C12.4092 3.37127 12.4092 3.87877 12.7234 4.19293C13.2137 4.68329 13.4891 5.34829 13.4891 6.04168C13.4891 6.73507 13.2137 7.40007 12.7234 7.89043C12.5516 8.05051 12.3244 8.13766 12.0896 8.13352C11.8548 8.12938 11.6308 8.03427 11.4648 7.86823C11.2987 7.70219 11.2036 7.47818 11.1995 7.2434C11.1953 7.00862 11.2825 6.78139 11.4426 6.6096C11.5928 6.45877 11.6772 6.25456 11.6772 6.04168C11.6772 5.8288 11.5928 5.62459 11.4426 5.47377C10.9523 4.98341 10.6769 4.31841 10.6769 3.62502C10.6769 2.93163 10.9523 2.26663 11.4426 1.77627C11.6125 1.60656 11.8428 1.51123 12.083 1.51123C12.3231 1.51123 12.5535 1.60656 12.7234 1.77627ZM7.28591 3.58877C7.45562 3.75869 7.55095 3.98903 7.55095 4.22918C7.55095 4.46934 7.45562 4.69968 7.28591 4.8696L7.14574 5.00977C7.00318 5.15184 6.91682 5.34069 6.9026 5.54146C6.88839 5.74223 6.94728 5.94136 7.06841 6.1021C7.45099 6.61191 7.63671 7.24268 7.59142 7.87847C7.54614 8.51425 7.27289 9.11233 6.82191 9.56277L6.68174 9.70293C6.50995 9.86301 6.28273 9.95016 6.04795 9.94602C5.81316 9.94188 5.58916 9.84677 5.42312 9.68073C5.25708 9.51469 5.16197 9.29068 5.15782 9.0559C5.15368 8.82112 5.24083 8.59389 5.40091 8.4221L5.54108 8.28193C5.68364 8.13986 5.77 7.95101 5.78422 7.75024C5.79843 7.54947 5.73954 7.35034 5.61841 7.1896C5.23567 6.67993 5.04975 6.04924 5.09481 5.41346C5.13988 4.77768 5.4129 4.17952 5.8637 3.72893L6.00387 3.58877C6.08803 3.50455 6.18796 3.43775 6.29795 3.39217C6.40794 3.34659 6.52583 3.32313 6.64489 3.32313C6.76395 3.32313 6.88184 3.34659 6.99183 3.39217C7.10182 3.43775 7.20175 3.50455 7.28591 3.58877ZM18.7651 3.58877C18.9348 3.75869 19.0301 3.98903 19.0301 4.22918C19.0301 4.46934 18.9348 4.69968 18.7651 4.8696L18.6249 5.00977C18.4823 5.15184 18.396 5.34069 18.3818 5.54146C18.3676 5.74223 18.4264 5.94136 18.5476 6.1021C18.9302 6.61191 19.1159 7.24268 19.0706 7.87847C19.0253 8.51425 18.7521 9.11233 18.3011 9.56277L18.1609 9.70293C18.0779 9.79197 17.9779 9.86339 17.8667 9.91292C17.7556 9.96245 17.6356 9.98909 17.5139 9.99123C17.3922 9.99338 17.2713 9.97099 17.1585 9.92542C17.0456 9.87984 16.9431 9.81199 16.8571 9.72594C16.771 9.63988 16.7032 9.53737 16.6576 9.42453C16.612 9.31169 16.5896 9.19082 16.5918 9.06914C16.5939 8.94745 16.6206 8.82745 16.6701 8.71628C16.7196 8.60512 16.791 8.50507 16.8801 8.4221L17.0202 8.28193C17.1628 8.13986 17.2492 7.95101 17.2634 7.75024C17.2776 7.54947 17.2187 7.35034 17.0976 7.1896C16.7148 6.67993 16.5289 6.04924 16.574 5.41346C16.619 4.77768 16.8921 4.17952 17.3429 3.72893L17.4842 3.58877C17.6542 3.41906 17.8845 3.32373 18.1247 3.32373C18.3648 3.32373 18.5952 3.41906 18.7651 3.58877ZM5.61478 11.1771H18.55C18.9886 11.1771 19.3245 11.1771 19.6157 11.2278C20.3928 11.3661 21.0953 11.7765 21.5974 12.3854H22.958C24.1598 12.3854 25.3123 12.8628 26.1621 13.7126C27.0118 14.5624 27.4892 15.7149 27.4892 16.9167C27.4892 18.1184 27.0118 19.271 26.1621 20.1208C25.3123 20.9705 24.1598 21.4479 22.958 21.4479H21.3243C20.7724 22.8713 19.8031 24.0945 18.5435 24.957C17.284 25.8196 15.793 26.2812 14.2665 26.2813H9.89954C8.04423 26.2811 6.25359 25.5996 4.86762 24.3662C3.48165 23.1329 2.59687 21.4335 2.38129 19.5907L1.89795 15.4486L1.88708 15.3664C1.83633 14.9314 1.79766 14.5967 1.81458 14.3031C1.85872 13.5576 2.15265 12.8488 2.64896 12.2909C3.14528 11.733 3.81504 11.3585 4.55024 11.2278C4.84024 11.1771 5.17737 11.1771 5.61478 11.1771ZM19.8985 19.9025C19.7915 20.01 19.7131 20.1427 19.6707 20.2884C19.6283 20.434 19.6231 20.588 19.6556 20.7362C19.2444 21.8332 18.5079 22.7784 17.5448 23.4454C16.5818 24.1125 15.438 24.4695 14.2665 24.4688H9.89954C8.48856 24.4686 7.12677 23.9503 6.07272 23.0123C5.01868 22.0743 4.34575 20.7819 4.1817 19.3805L3.69837 15.2383C3.63191 14.6825 3.61741 14.523 3.62345 14.4094C3.64379 14.0706 3.77765 13.7485 4.00344 13.4951C4.22924 13.2417 4.53381 13.0717 4.86804 13.0126C4.97799 12.9932 5.13749 12.9896 5.69816 12.9896H18.4678C19.0273 12.9896 19.1868 12.9932 19.298 13.0138C19.9867 13.1346 20.5002 13.7134 20.5425 14.4106C20.5486 14.523 20.5329 14.6813 20.4688 15.2383L19.9843 19.3805C19.9641 19.5561 19.9347 19.7301 19.8985 19.9025ZM21.7799 19.6354H22.958C23.679 19.6354 24.3706 19.349 24.8804 18.8391C25.3903 18.3293 25.6767 17.6377 25.6767 16.9167C25.6767 16.1956 25.3903 15.5041 24.8804 14.9942C24.3706 14.4844 23.679 14.1979 22.958 14.1979H22.3429C22.347 14.2326 22.3494 14.2672 22.3502 14.3019C22.3683 14.5967 22.3297 14.9302 22.2777 15.3652L22.268 15.4486L21.7847 19.5907L21.7799 19.6354Z" fill="white"/>
</svg>
