<svg width="37" height="37" viewBox="0 0 37 37" fill="none" xmlns="http://www.w3.org/2000/svg">
<path d="M19.0326 32.3166C17.4293 32.1254 15.8373 31.7071 14.2566 31.0617C12.6758 30.4152 11.2436 29.4738 9.95994 28.2373C8.67522 26.9999 7.60839 25.4315 6.75944 23.5322C5.9105 21.6328 5.41613 19.3429 5.27636 16.6625L5.21777 15.4168L6.40331 15.477C7.47632 15.5355 8.75076 15.8064 10.2266 16.2894C11.7036 16.7704 12.9569 17.3845 13.9868 18.1317C14.1173 16.1995 14.5952 14.1645 15.4205 12.0267C16.2458 9.88893 17.2721 8.07388 18.4992 6.58154C19.7264 8.07388 20.7526 9.8987 21.5779 12.056C22.4032 14.2133 22.8812 16.2586 23.0117 18.1918C23.9819 17.5032 25.1854 16.8938 26.6223 16.3634C28.0591 15.8331 29.3639 15.5371 30.5366 15.4754L31.7807 15.4168L31.7221 16.7211C31.643 18.8486 31.312 20.7582 30.7293 22.4499C30.1465 24.1416 29.3217 25.6258 28.2549 26.9023C27.1881 28.1788 25.8895 29.2631 24.3591 30.1552C22.8287 31.0473 21.0533 31.7678 19.0326 32.3166ZM19.0141 30.7564C18.7315 26.4911 17.4663 23.2665 15.2186 21.0825C12.9708 18.8984 10.1763 17.5495 6.83498 17.0356C7.11762 21.4293 8.42187 24.7054 10.7477 26.8637C13.0736 29.022 15.8291 30.3196 19.0141 30.7564ZM18.4992 22.9833C18.8456 22.3389 19.2901 21.6652 19.8328 20.9622C20.3744 20.2592 20.932 19.6698 21.5055 19.1939C21.4942 17.6111 21.2249 15.959 20.6976 14.2375C20.1704 12.5159 19.4376 10.8674 18.4992 9.29179C17.5609 10.8674 16.8281 12.5159 16.3008 14.2375C15.7736 15.959 15.5043 17.6111 15.493 19.1939C16.0665 19.6708 16.621 20.2602 17.1564 20.9622C17.6919 21.6652 18.1395 22.3384 18.4992 22.9818M20.5574 30.2415C21.764 29.8335 22.9207 29.2944 24.0276 28.6243C25.1356 27.9552 26.1274 27.098 27.0031 26.0528C27.8798 25.0086 28.5987 23.748 29.1599 22.2711C29.72 20.7952 30.054 19.05 30.1619 17.0356C27.6675 17.3953 25.4491 18.2725 23.5066 19.6672C21.5641 21.0619 20.1637 22.7721 19.3055 24.7979C19.6139 25.6201 19.8672 26.45 20.0656 27.2877C20.2639 28.1253 20.4279 29.1099 20.5574 30.2415Z" fill="white"/>
</svg>
