<svg width="31" height="31" viewBox="0 0 31 31" fill="none" xmlns="http://www.w3.org/2000/svg">
<g clip-path="url(#clip0_203_1218)">
<path d="M11.6247 24.5418V16.146M11.6247 16.146V7.10433H17.4372C18.0309 7.10433 18.6187 7.22126 19.1672 7.44846C19.7157 7.67565 20.2141 8.00865 20.6339 8.42845C21.0537 8.84825 21.3867 9.34662 21.6139 9.89512C21.8411 10.4436 21.958 11.0315 21.958 11.6252C21.958 12.2188 21.8411 12.8067 21.6139 13.3552C21.3867 13.9037 21.0537 14.4021 20.6339 14.8219C20.2141 15.2417 19.7157 15.5747 19.1672 15.8019C18.6187 16.0291 18.0309 16.146 17.4372 16.146H11.6247ZM15.4997 30.3543C7.2963 30.3543 0.645508 23.7035 0.645508 15.5002C0.645508 7.29679 7.2963 0.645996 15.4997 0.645996C23.7031 0.645996 30.3538 7.29679 30.3538 15.5002C30.3538 23.7035 23.7031 30.3543 15.4997 30.3543Z" stroke="white" stroke-width="1.29167"/>
</g>
<defs>
<clipPath id="clip0_203_1218">
<rect width="31" height="31" fill="white"/>
</clipPath>
</defs>
</svg>
