<svg width="32" height="32" viewBox="0 0 32 32" fill="none" xmlns="http://www.w3.org/2000/svg">
<path d="M8 26.6666C7.64267 26.6666 7.33111 26.5337 7.06533 26.2679C6.79956 26.0021 6.66667 25.6906 6.66667 25.3333V13.1639C5.92978 12.7266 5.30133 12.1879 4.78133 11.5479C4.26044 10.907 4 10.1688 4 9.33325C4 8.2257 4.38978 7.28214 5.16933 6.50259C5.94889 5.72303 6.89244 5.33325 8 5.33325H24C25.1076 5.33325 26.0511 5.72303 26.8307 6.50259C27.6102 7.28214 28 8.2257 28 9.33325C28 10.1688 27.74 10.9066 27.22 11.5466C26.6991 12.1866 26.0702 12.7257 25.3333 13.1639V25.3333C25.3333 25.6906 25.2004 26.0021 24.9347 26.2679C24.6689 26.5337 24.3573 26.6666 24 26.6666H8ZM8 25.3333H24V12.3999L24.7187 11.9599C25.2209 11.6461 25.6711 11.2768 26.0693 10.8519C26.4676 10.4253 26.6667 9.91903 26.6667 9.33325C26.6667 8.59992 26.4058 7.97236 25.884 7.45059C25.3622 6.92881 24.7342 6.66747 24 6.66659H8C7.26667 6.66659 6.63911 6.92792 6.11733 7.45059C5.59556 7.97325 5.33422 8.60081 5.33333 9.33325C5.33333 9.92525 5.53111 10.435 5.92667 10.8626C6.32222 11.291 6.77378 11.6617 7.28133 11.9746L8 12.3999V25.3333ZM15.4773 21.9066C15.624 22.0488 15.7996 22.1199 16.004 22.1199C16.2084 22.1199 16.3818 22.0488 16.524 21.9066L20.6253 17.8559C20.7729 17.7093 20.8467 17.5337 20.8467 17.3293C20.8467 17.1248 20.7729 16.9515 20.6253 16.8093L16.5227 12.7079C16.3804 12.5613 16.2076 12.4879 16.004 12.4879C15.7996 12.4879 15.624 12.5613 15.4773 12.7079L11.4253 16.8106C11.2831 16.9528 11.212 17.1257 11.212 17.3293C11.212 17.5337 11.2831 17.7093 11.4253 17.8559L15.4773 21.9066ZM16 20.5453L12.7893 17.3333L16 14.0719L19.2613 17.3333L16 20.5453Z" fill="white"/>
</svg>
