<svg width="29" height="29" viewBox="0 0 29 29" fill="none" xmlns="http://www.w3.org/2000/svg">
<path d="M9.06267 25.9791V15.063C8.12823 14.9204 7.33677 14.4919 6.6883 13.7773C6.04063 13.0636 5.7168 12.1892 5.7168 11.154V3.02075H6.92513V11.1528H9.06267V3.02075H10.271V11.1528H12.4098V3.02075H13.6181V11.1528C13.6181 12.1888 13.2939 13.0636 12.6454 13.7773C11.9961 14.4919 11.2046 14.9204 10.271 15.063V25.9791H9.06267ZM20.2156 25.9791V16.3124H17.2431V8.45825C17.2431 7.11217 17.6225 5.91995 18.3813 4.88159C19.1418 3.84242 20.1564 3.23785 21.4251 3.06788V25.9791H20.2156Z" fill="white"/>
</svg>
