<svg width="29" height="29" viewBox="0 0 29 29" fill="none" xmlns="http://www.w3.org/2000/svg">
<path d="M16.4236 25.8585L15.3361 24.771L19.6257 20.4814L8.51868 9.37443L4.2291 13.664L3.1416 12.5765L4.88039 10.8244L3.79289 9.73693L6.33039 7.19943L4.63873 5.49326L5.49302 4.63897L7.19918 6.33064L9.73668 3.79314L10.8242 4.88064L12.5763 3.14185L13.6638 4.22935L9.37418 8.51893L20.4812 19.6259L24.7708 15.3363L25.8583 16.4238L24.1207 18.1759L25.2082 19.2634L22.6707 21.8009L24.3624 23.5071L23.5069 24.3626L21.8007 22.6709L19.2632 25.2084L18.1757 24.1209L16.4236 25.8585Z" fill="white"/>
</svg>
