<svg width="38" height="38" viewBox="0 0 38 38" fill="none" xmlns="http://www.w3.org/2000/svg">
<path d="M5.11426 27.5264V25.943H32.8859V27.5264H5.11426ZM6.33342 23.7501V23.3859C6.33342 20.272 7.39426 17.5788 9.51592 15.3062C11.6397 13.0357 14.2733 11.6793 17.4168 11.237V10.5356C17.4168 10.1113 17.5746 9.74129 17.8902 9.42568C18.2058 9.10902 18.5758 8.95068 19.0001 8.95068C19.4244 8.95068 19.7944 9.10902 20.11 9.42568C20.4256 9.74235 20.5834 10.1118 20.5834 10.534V11.2354C23.7343 11.6788 26.3689 13.0357 28.4874 15.3062C30.6059 17.5767 31.6657 20.2699 31.6668 23.3859V23.7501H6.33342ZM8.02759 22.1668H29.9726C29.7256 19.5849 28.5397 17.3661 26.4148 15.5104C24.29 13.6548 21.8184 12.728 19.0001 12.7301C16.1818 12.7322 13.7118 13.659 11.5901 15.5104C9.46842 17.3619 8.28092 19.5807 8.02759 22.1668Z" fill="white"/>
</svg>
