<?xml version="1.0" standalone="no"?>
<!DOCTYPE svg PUBLIC "-//W3C//DTD SVG 20010904//EN"
 "http://www.w3.org/TR/2001/REC-SVG-20010904/DTD/svg10.dtd">
<svg version="1.0" xmlns="http://www.w3.org/2000/svg"
 width="326.000000pt" height="326.000000pt" viewBox="0 0 326.000000 326.000000"
 preserveAspectRatio="xMidYMid meet">
<metadata>
Created by potrace 1.14, written by Peter Selinger 2001-2017
</metadata>
<g transform="translate(0.000000,326.000000) scale(0.100000,-0.100000)"
fill="#000000" stroke="none">
<path d="M1758 2472 c-28 -18 -41 -36 -49 -66 -12 -45 -4 -153 13 -173 6 -7 8
-13 4 -13 -9 0 59 -129 83 -160 24 -29 24 -31 22 93 0 45 3 77 9 77 6 0 10
-40 10 -97 l1 -98 29 35 c17 19 30 40 30 47 0 6 9 18 20 26 11 8 17 17 14 20
-4 3 1 25 11 49 25 62 31 112 22 192 -2 20 -62 85 -81 87 -71 9 -104 5 -138
-19z"/>
<path d="M1650 2446 c0 -8 -7 -16 -15 -19 -40 -16 -63 -178 -30 -211 9 -8 16
-18 15 -21 -1 -18 2 -25 25 -51 13 -15 22 -30 20 -32 -2 -3 -33 -5 -68 -6 -41
-1 -73 -8 -90 -19 -28 -18 -77 -78 -77 -94 0 -5 -14 -22 -31 -39 -64 -61 -76
-131 -32 -191 13 -17 23 -36 23 -41 0 -5 10 -12 22 -15 20 -6 20 -7 5 -31 -21
-32 -21 -37 0 -29 10 4 14 2 9 -5 -4 -8 3 -8 26 -2 20 6 36 6 44 0 8 -8 14 -6
18 6 5 14 9 14 23 3 10 -9 14 -9 10 -2 -5 7 5 18 27 28 19 9 45 33 57 53 19
32 21 46 15 107 -4 38 -12 72 -18 76 -16 10 -16 72 1 92 19 21 62 22 101 2 27
-14 54 -5 30 10 -15 10 -12 25 6 25 12 0 8 12 -18 48 -40 55 -81 148 -73 162
3 6 2 10 -3 10 -5 0 -8 11 -7 25 2 14 0 27 -4 30 -11 6 -2 97 11 111 9 8 -2
34 -13 34 -5 0 -9 -6 -9 -14z"/>
<path d="M2013 2432 c2 -15 5 -32 8 -37 2 -6 4 -23 3 -40 -5 -99 -33 -182 -88
-264 -23 -35 -26 -45 -15 -52 11 -6 11 -11 1 -21 -14 -14 -16 -32 -2 -23 6 3
10 1 10 -6 0 -7 6 -5 14 6 18 25 84 30 108 8 21 -18 19 -49 -6 -119 -16 -46
-19 -134 -5 -134 5 0 9 -6 9 -14 0 -23 45 -63 86 -76 21 -8 63 -14 92 -15 45
-1 52 1 46 14 -14 32 -10 56 9 55 10 -1 16 3 14 10 -3 6 5 21 17 34 43 48 20
180 -35 197 -14 5 -18 12 -14 26 4 10 2 19 -4 19 -5 0 -19 16 -31 35 -25 41
-80 72 -130 75 -19 1 -37 1 -40 0 -3 -1 -18 -4 -33 -6 -26 -3 -27 -1 -15 14 7
9 16 19 20 22 4 3 19 27 33 53 40 77 34 162 -19 240 -24 35 -37 35 -33 -1z"/>
<path d="M758 2187 c-62 -62 -89 -83 -118 -92 -162 -47 -373 -125 -391 -144
-32 -34 -51 -71 -44 -88 6 -16 8 -17 18 -2 12 16 98 64 106 60 2 -2 7 1 10 6
3 4 22 14 41 21 51 20 225 82 228 82 1 0 3 0 5 1 34 10 37 7 22 -27 -14 -33
-22 -74 -32 -159 -2 -22 -6 -200 -9 -395 -4 -314 -12 -455 -31 -532 -3 -13 -6
-31 -6 -40 -1 -10 -4 -18 -7 -18 -3 0 -6 -10 -6 -23 -4 -52 -87 -202 -139
-250 -31 -29 -109 -66 -154 -73 -51 -8 -76 -26 -68 -48 9 -23 102 -17 177 12
8 3 17 6 20 7 3 1 22 9 43 18 20 9 38 15 40 14 2 -2 70 57 104 93 62 64 137
196 148 260 0 3 8 28 18 55 9 28 19 70 22 95 2 25 7 56 11 70 3 14 8 185 10
380 4 362 10 539 19 599 3 18 18 47 35 64 16 17 30 37 30 44 0 7 4 13 8 13 4
0 6 16 4 35 -6 53 -30 45 -114 -38z"/>
<path d="M1833 2002 c-18 -2 -33 -8 -33 -14 0 -6 -3 -9 -6 -6 -9 10 -51 -39
-59 -69 -5 -15 -10 -35 -12 -43 -8 -30 -10 -55 -5 -65 3 -5 7 -20 8 -34 2 -13
18 -39 36 -58 31 -32 36 -34 90 -31 32 2 58 7 58 11 0 5 11 23 24 40 71 93 1
279 -101 269z"/>
<path d="M2525 1700 c-29 -11 -40 -27 -59 -87 -42 -127 13 -241 207 -429 209
-204 240 -254 234 -374 -6 -125 -73 -220 -195 -277 -97 -45 -219 -30 -288 36
-24 23 -59 64 -62 73 -2 4 -10 24 -18 44 -21 49 -21 132 -1 170 15 29 55 54
134 86 18 7 35 20 39 28 12 30 14 60 4 60 -5 0 -10 5 -10 10 0 6 -8 19 -17 29
-68 70 -168 49 -214 -46 -30 -62 -30 -60 -38 -183 -6 -104 -20 -148 -59 -192
-8 -10 -12 -18 -9 -18 13 0 -71 -76 -95 -87 -18 -8 -30 -7 -51 3 -42 22 -62
75 -72 188 -2 23 -8 91 -14 151 -6 61 -10 232 -10 380 0 149 0 285 0 304 -1
31 -3 33 -28 26 -56 -13 -135 -60 -145 -85 -11 -28 -5 -685 7 -735 4 -16 8
-40 9 -52 7 -50 52 -148 83 -179 60 -61 158 -83 233 -54 3 1 8 2 12 1 10 -1
118 103 118 114 1 11 35 55 43 55 3 0 17 -20 31 -45 33 -56 81 -102 124 -117
17 -7 32 -16 32 -22 0 -5 2 -7 6 -4 3 3 26 -1 51 -8 166 -50 372 44 449 204
16 31 29 59 29 62 1 3 9 30 18 61 61 203 -5 381 -198 534 -27 22 -58 47 -69
55 -40 32 -130 127 -153 162 -21 31 -24 45 -20 92 5 61 -5 79 -38 66z"/>
<path d="M1110 1593 c-57 -20 -140 -68 -141 -82 -4 -40 -5 -998 -1 -1012 2
-11 13 -16 30 -14 51 3 107 17 129 31 22 14 23 17 23 262 0 136 3 259 5 275 3
15 7 38 9 52 2 13 15 55 27 92 13 37 24 70 24 73 3 16 69 135 88 158 55 66 95
98 124 96 39 -2 40 -2 57 -20 21 -21 20 -66 -4 -141 -20 -65 -20 -95 2 -117
58 -58 147 -33 169 46 28 103 0 224 -63 271 -36 27 -103 37 -162 25 -39 -8
-60 -21 -110 -72 -63 -61 -122 -150 -147 -221 -13 -36 -14 -27 -19 130 -3 100
-9 169 -15 171 -5 1 -17 0 -25 -3z"/>
</g>
</svg>
